<svg width="74" height="74" viewBox="0 0 74 74" fill="none" xmlns="http://www.w3.org/2000/svg">
<path d="M22.4867 10.153C23.0177 9.62211 23.7241 9.3032 24.4734 9.25608C25.2227 9.20896 25.9635 9.43688 26.5567 9.89707L26.8466 10.153L51.5132 34.8197C52.0441 35.3506 52.363 36.057 52.4102 36.8063C52.4573 37.5556 52.2294 38.2964 51.7692 38.8897L51.5132 39.1795L26.8466 63.8462C26.2917 64.3991 25.5472 64.7202 24.7641 64.7441C23.9811 64.768 23.2184 64.493 22.6308 63.9749C22.0432 63.4568 21.6749 62.7345 21.6006 61.9546C21.5263 61.1748 21.7516 60.3959 22.2308 59.7762L22.4867 59.4863L44.9735 36.9996L22.4867 14.5128C21.9087 13.9346 21.584 13.1505 21.584 12.3329C21.584 11.5153 21.9087 10.7312 22.4867 10.153Z" fill="white"/>
</svg>
