<svg width="49" height="49" viewBox="0 0 49 49" fill="none" xmlns="http://www.w3.org/2000/svg">
<path d="M24.5 0.75C11.4043 0.75 0.75 11.4043 0.75 24.5C0.75 37.5957 11.4043 48.25 24.5 48.25C37.5957 48.25 48.25 37.5957 48.25 24.5C48.25 11.4043 37.5957 0.75 24.5 0.75Z" fill="black" fill-opacity="0.2"/>
<path d="M23.2594 13.9969C23.3738 13.7491 23.5509 13.5405 23.7706 13.3946C23.9903 13.2487 24.2439 13.1714 24.5027 13.1714C24.7614 13.1714 25.015 13.2487 25.2348 13.3946C25.4545 13.5405 25.6316 13.7491 25.7459 13.9969L28.421 19.7829L34.4045 20.7105C34.6605 20.7502 34.9009 20.8655 35.0987 21.0435C35.2965 21.2215 35.4436 21.455 35.5235 21.7176C35.6034 21.9802 35.6129 22.2615 35.5508 22.5295C35.4887 22.7976 35.3576 23.0417 35.1723 23.2344L30.8424 27.7392L31.8653 34.0993C31.9089 34.3713 31.8804 34.651 31.783 34.9067C31.6855 35.1624 31.5229 35.3838 31.3137 35.5461C31.1045 35.7083 30.8569 35.8048 30.599 35.8247C30.341 35.8446 30.083 35.787 29.8541 35.6586L24.5041 32.6553L19.1512 35.6586C18.9224 35.7866 18.6645 35.8438 18.4068 35.8237C18.1491 35.8037 17.9018 35.7071 17.6928 35.5449C17.4838 35.3828 17.3214 35.1615 17.224 34.906C17.1266 34.6506 17.098 34.3711 17.1415 34.0993L18.163 27.7377L13.833 23.2344C13.6477 23.0417 13.5166 22.7976 13.4546 22.5295C13.3925 22.2615 13.4019 21.9802 13.4818 21.7176C13.5617 21.455 13.7089 21.2215 13.9067 21.0435C14.1044 20.8655 14.3449 20.7502 14.6009 20.7105L20.5844 19.7829L23.2594 13.9983V13.9969Z" fill="white"/>
<path d="M16.7242 28.4786C16.8386 28.6317 16.8916 28.8271 16.8713 29.0218C16.851 29.2165 16.7592 29.3946 16.616 29.5172L13.151 32.476C13.0806 32.5422 12.9984 32.5924 12.9093 32.6236C12.8202 32.6548 12.7262 32.6665 12.6327 32.6578C12.5393 32.6491 12.4486 32.6202 12.3659 32.573C12.2833 32.5257 12.2104 32.4611 12.1519 32.3829C12.0933 32.3048 12.0502 32.2148 12.0252 32.1183C12.0001 32.0219 11.9937 31.921 12.0062 31.8218C12.0188 31.7227 12.0501 31.6272 12.0982 31.5413C12.1463 31.4554 12.2102 31.3809 12.2861 31.3221L15.7512 28.3632C15.8946 28.241 16.0776 28.1846 16.26 28.2062C16.4424 28.2278 16.6093 28.3258 16.7242 28.4786Z" fill="white"/>
<path d="M16.616 17.2679C16.7497 17.3935 16.833 17.5693 16.8485 17.7587C16.864 17.9482 16.8105 18.1367 16.6992 18.2852C16.588 18.4336 16.4274 18.5307 16.2508 18.5561C16.0743 18.5816 15.8954 18.5335 15.7512 18.4218L12.2861 15.463C12.2102 15.4042 12.1463 15.3296 12.0982 15.2437C12.0501 15.1578 12.0188 15.0624 12.0062 14.9632C11.9937 14.8641 12.0001 14.7632 12.0252 14.6667C12.0502 14.5703 12.0933 14.4803 12.1519 14.4021C12.2104 14.324 12.2833 14.2593 12.3659 14.2121C12.4486 14.1649 12.5393 14.136 12.6327 14.1273C12.7262 14.1186 12.8202 14.1302 12.9093 14.1615C12.9984 14.1927 13.0806 14.2429 13.151 14.309L16.616 17.2679Z" fill="white"/>
<path d="M32.2764 28.4789C32.1619 28.632 32.109 28.8273 32.1292 29.022C32.1495 29.2167 32.2413 29.3949 32.3845 29.5174L35.8496 32.4763C35.9199 32.5424 36.0021 32.5926 36.0912 32.6238C36.1803 32.6551 36.2744 32.6667 36.3678 32.658C36.4612 32.6493 36.552 32.6204 36.6346 32.5732C36.7173 32.526 36.7901 32.4613 36.8487 32.3832C36.9072 32.305 36.9504 32.215 36.9754 32.1186C37.0004 32.0221 37.0068 31.9213 36.9943 31.8221C36.9818 31.7229 36.9505 31.6275 36.9024 31.5416C36.8543 31.4557 36.7903 31.3811 36.7144 31.3223L33.2494 28.3635C33.1783 28.3027 33.0967 28.2575 33.0093 28.2305C32.9218 28.2034 32.8303 28.195 32.7398 28.2057C32.6493 28.2164 32.5617 28.246 32.4819 28.2929C32.4022 28.3398 32.3319 28.403 32.275 28.4789H32.2764Z" fill="white"/>
<path d="M32.3835 17.2679C32.2498 17.3935 32.1666 17.5693 32.1511 17.7587C32.1356 17.9482 32.189 18.1367 32.3003 18.2852C32.4116 18.4336 32.5722 18.5307 32.7487 18.5561C32.9252 18.5816 33.1042 18.5335 33.2484 18.4218L36.7134 15.463C36.7893 15.4042 36.8533 15.3296 36.9014 15.2437C36.9495 15.1578 36.9808 15.0624 36.9933 14.9632C37.0058 14.8641 36.9994 14.7632 36.9744 14.6667C36.9494 14.5703 36.9062 14.4803 36.8477 14.4021C36.7891 14.324 36.7163 14.2593 36.6336 14.2121C36.551 14.1649 36.4602 14.136 36.3668 14.1273C36.2734 14.1186 36.1793 14.1302 36.0902 14.1615C36.0011 14.1927 35.9189 14.2429 35.8486 14.309L32.3835 17.2679Z" fill="white"/>
</svg>
