<svg width="21" height="22" viewBox="0 0 21 22" fill="none" xmlns="http://www.w3.org/2000/svg">
<path d="M10.5 1.8125C8.68289 1.8125 6.90658 2.35134 5.3957 3.36087C3.88483 4.37041 2.70724 5.8053 2.01186 7.4841C1.31648 9.16289 1.13454 11.0102 1.48904 12.7924C1.84354 14.5746 2.71857 16.2116 4.00346 17.4965C5.28836 18.7814 6.92541 19.6565 8.70761 20.011C10.4898 20.3655 12.3371 20.1835 14.0159 19.4881C15.6947 18.7928 17.1296 17.6152 18.1391 16.1043C19.1487 14.5934 19.6875 12.8171 19.6875 11C19.6875 8.56332 18.7195 6.22645 16.9965 4.50346C15.2736 2.78047 12.9367 1.8125 10.5 1.8125ZM10.5 18.875C8.94248 18.875 7.41993 18.4131 6.12489 17.5478C4.82985 16.6825 3.82049 15.4526 3.22445 14.0136C2.62841 12.5747 2.47246 10.9913 2.77632 9.46366C3.08018 7.93606 3.8302 6.53287 4.93154 5.43153C6.03288 4.3302 7.43607 3.58017 8.96367 3.27632C10.4913 2.97246 12.0747 3.12841 13.5136 3.72445C14.9526 4.32049 16.1825 5.32985 17.0478 6.62489C17.9131 7.91992 18.375 9.44247 18.375 11C18.375 13.0886 17.5453 15.0916 16.0685 16.5685C14.5916 18.0453 12.5886 18.875 10.5 18.875Z" fill="black" fill-opacity="0.87"/>
<path d="M9.86914 14.3599H11.1291V15.8299H9.86914V14.3599ZM9.86914 6.16992H11.1291V12.6799H9.86914V6.16992Z" fill="black" fill-opacity="0.87"/>
</svg>
