<svg width="24" height="24" viewBox="0 0 24 24" fill="none" xmlns="http://www.w3.org/2000/svg">
<g clip-path="url(#clip0)">
<path d="M21.3333 0H2.66667C1.95942 0 1.28115 0.280951 0.781049 0.781049C0.280951 1.28115 0 1.95942 0 2.66667V21.3333C0 22.0406 0.280951 22.7189 0.781049 23.219C1.28115 23.7191 1.95942 24 2.66667 24H21.3333C22.0406 24 22.7189 23.7191 23.219 23.219C23.7191 22.7189 24 22.0406 24 21.3333V2.66667C24 1.95942 23.7191 1.28115 23.219 0.781049C22.7189 0.280951 22.0406 0 21.3333 0ZM9.33333 18.6667L2.66667 12L4.54667 10.12L9.33333 14.8933L19.4533 4.77333L21.3333 6.66667L9.33333 18.6667Z" fill="#15CC8A"/>
</g>
<defs>
<clipPath id="clip0">
<rect width="24" height="24" fill="white"/>
</clipPath>
</defs>
</svg>
