<svg width="60" height="60" viewBox="0 0 60 60" fill="none" xmlns="http://www.w3.org/2000/svg">
<rect width="60" height="60" rx="30" fill="black" fill-opacity="0.6"/>
<path d="M33.2868 29.998L43.3105 19.9963C43.7494 19.5572 43.996 18.9618 43.996 18.341C43.996 17.7201 43.7494 17.1247 43.3105 16.6856C42.8715 16.2466 42.2762 16 41.6554 16C41.0346 16 40.4393 16.2466 40.0003 16.6856L30 26.7107L19.9997 16.6856C19.5607 16.2466 18.9654 16 18.3446 16C17.7238 16 17.1285 16.2466 16.6895 16.6856C16.2506 17.1247 16.004 17.7201 16.004 18.341C16.004 18.9618 16.2506 19.5572 16.6895 19.9963L26.7132 29.998L16.6895 39.9998C16.471 40.2165 16.2976 40.4744 16.1793 40.7585C16.0609 41.0426 16 41.3473 16 41.6551C16 41.9628 16.0609 42.2676 16.1793 42.5517C16.2976 42.8358 16.471 43.0936 16.6895 43.3104C16.9062 43.5289 17.1641 43.7023 17.4481 43.8207C17.7322 43.9391 18.0369 44 18.3446 44C18.6523 44 18.957 43.9391 19.2411 43.8207C19.5251 43.7023 19.783 43.5289 19.9997 43.3104L30 33.2853L40.0003 43.3104C40.217 43.5289 40.4749 43.7023 40.7589 43.8207C41.043 43.9391 41.3477 44 41.6554 44C41.9631 44 42.2678 43.9391 42.5519 43.8207C42.8359 43.7023 43.0938 43.5289 43.3105 43.3104C43.529 43.0936 43.7024 42.8358 43.8207 42.5517C43.9391 42.2676 44 41.9628 44 41.6551C44 41.3473 43.9391 41.0426 43.8207 40.7585C43.7024 40.4744 43.529 40.2165 43.3105 39.9998L33.2868 29.998Z" fill="white"/>
</svg>
