<svg width="32" height="32" viewBox="0 0 32 32" fill="none" xmlns="http://www.w3.org/2000/svg">
<path d="M25.3335 4.66675H6.66683C5.9335 4.66675 5.3335 5.26675 5.3335 6.00008V10.0001C5.3335 10.7334 5.9335 11.3334 6.66683 11.3334H25.3335C26.0668 11.3334 26.6668 10.7334 26.6668 10.0001V6.00008C26.6668 5.26675 26.0668 4.66675 25.3335 4.66675Z" fill="#A9A9A9"/>
<path d="M25.3335 12.6667H6.66683C5.9335 12.6667 5.3335 13.2667 5.3335 14.0001V18.0001C5.3335 18.7334 5.9335 19.3334 6.66683 19.3334H23.4002C24.2668 18.4667 26.6668 18.7334 26.6668 18.0001V14.0001C26.6668 13.2667 26.0668 12.6667 25.3335 12.6667Z" fill="#A9A9A9"/>
<path d="M22.9335 20.6667H6.66683C5.9335 20.6667 5.3335 21.2667 5.3335 22.0001V26.0001C5.3335 26.7334 5.9335 27.3334 6.66683 27.3334H25.3335C26.0668 27.3334 26.6668 26.7334 26.6668 26.0001V24.4001C26.6668 22.3334 25.0002 20.6667 22.9335 20.6667Z" fill="#A9A9A9"/>
<path d="M28.8889 17H21.1111C20.5 17 20 17.52 20 18.1556V24.9733C20 25.7244 20.3333 26.36 20.8889 26.8222L25 30L29.1111 26.8222C29.6667 26.36 30 25.7244 30 24.9733V18.1556C30 17.52 29.5 17 28.8889 17Z" fill="#5C1C1C"/>
</svg>
