<svg width="146" height="67" viewBox="0 0 146 67" fill="none" xmlns="http://www.w3.org/2000/svg">
<path d="M36.4998 58.6249H18.2498C16.6364 58.6249 15.0891 58.3308 13.9483 57.8073C12.8074 57.2837 12.1665 56.5737 12.1665 55.8333V33.4999C12.1665 32.7595 12.8074 32.0495 13.9483 31.5259C15.0891 31.0024 16.6364 30.7083 18.2498 30.7083H36.4998C38.1132 30.7083 39.6606 31.0024 40.8014 31.5259C41.9422 32.0495 42.5832 32.7595 42.5832 33.4999V55.8333C42.5832 56.5737 41.9422 57.2837 40.8014 57.8073C39.6606 58.3308 38.1132 58.6249 36.4998 58.6249ZM79.0832 58.6249H60.8332C59.2198 58.6249 57.6725 58.3308 56.5316 57.8073C55.3908 57.2837 54.7498 56.5737 54.7498 55.8333V8.37492C54.7498 7.63452 55.3908 6.92445 56.5316 6.40091C57.6725 5.87737 59.2198 5.58325 60.8332 5.58325H79.0832C80.6966 5.58325 82.2439 5.87737 83.3847 6.40091C84.5256 6.92445 85.1665 7.63452 85.1665 8.37492V55.8333C85.1665 56.5737 84.5256 57.2837 83.3847 57.8073C82.2439 58.3308 80.6966 58.6249 79.0832 58.6249ZM121.666 58.6249H103.416C101.803 58.6249 100.256 58.3308 99.1149 57.8073C97.9741 57.2837 97.3332 56.5737 97.3332 55.8333V25.1249C97.3332 24.3845 97.9741 23.6745 99.1149 23.1509C100.256 22.6274 101.803 22.3333 103.416 22.3333H121.666C123.28 22.3333 124.827 22.6274 125.968 23.1509C127.109 23.6745 127.75 24.3845 127.75 25.1249V55.8333C127.75 56.5737 127.109 57.2837 125.968 57.8073C124.827 58.3308 123.28 58.6249 121.666 58.6249Z" fill="white"/>
</svg>
