<svg width="100" height="100" viewBox="0 0 100 100" fill="none" xmlns="http://www.w3.org/2000/svg">
<path d="M50 6.25C41.3471 6.25 32.8885 8.81589 25.6938 13.6232C18.4992 18.4305 12.8916 25.2633 9.58029 33.2576C6.26896 41.2519 5.40256 50.0485 7.09066 58.5352C8.77877 67.0219 12.9455 74.8174 19.0641 80.9359C25.1826 87.0545 32.9782 91.2213 41.4648 92.9094C49.9515 94.5975 58.7482 93.7311 66.7424 90.4197C74.7367 87.1084 81.5695 81.5008 86.3768 74.3062C91.1841 67.1115 93.75 58.6529 93.75 50C93.75 38.3968 89.1407 27.2688 80.9359 19.0641C72.7312 10.8594 61.6032 6.25 50 6.25V6.25ZM50 87.5C42.5832 87.5 35.333 85.3007 29.1661 81.1801C22.9993 77.0596 18.1928 71.2029 15.3545 64.3506C12.5163 57.4984 11.7736 49.9584 13.2206 42.6841C14.6675 35.4098 18.239 28.728 23.4835 23.4835C28.728 18.239 35.4098 14.6675 42.6841 13.2206C49.9584 11.7736 57.4984 12.5162 64.3506 15.3545C71.2029 18.1928 77.0596 22.9993 81.1801 29.1661C85.3007 35.333 87.5 42.5832 87.5 50C87.5 59.9456 83.5491 69.4839 76.5165 76.5165C69.4839 83.5491 59.9456 87.5 50 87.5Z" fill="#B61734"/>
<path d="M63.7714 68L49.5 53.7286L35.2286 68L31 63.7714L45.2714 49.5L31 35.2286L35.2286 31L49.5 45.2714L63.7714 31L68 35.2286L53.7286 49.5L68 63.7714L63.7714 68Z" fill="#B61734"/>
</svg>
