<svg width="129" height="129" viewBox="0 0 129 129" fill="none" xmlns="http://www.w3.org/2000/svg">
<path d="M108.004 10.7503C108.004 9.79997 107.626 8.88853 106.954 8.21653C106.282 7.54452 105.371 7.16699 104.421 7.16699H25.5872C24.6369 7.16699 23.7254 7.54452 23.0534 8.21653C22.3814 8.88853 22.0039 9.79997 22.0039 10.7503V14.3337H108.004V10.7503Z" fill="black" fill-opacity="0.38"/>
<path d="M115.095 25.0833C115.095 24.133 114.718 23.2215 114.046 22.5495C113.374 21.8775 112.462 21.5 111.512 21.5H18.3451C17.3947 21.5 16.4833 21.8775 15.8113 22.5495C15.1392 23.2215 14.7617 24.133 14.7617 25.0833V28.6667H115.095V25.0833Z" fill="black" fill-opacity="0.38"/>
<path d="M115.096 35.833H13.9027C12.116 35.833 10.4025 36.5428 9.13914 37.8061C7.87577 39.0695 7.16602 40.783 7.16602 42.5697V107.93C7.16602 109.716 7.87577 111.43 9.13914 112.693C10.4025 113.957 12.116 114.666 13.9027 114.666H115.096C116.883 114.666 118.596 113.957 119.86 112.693C121.123 111.43 121.833 109.716 121.833 107.93V42.5697C121.833 40.783 121.123 39.0695 119.86 37.8061C118.596 36.5428 116.883 35.833 115.096 35.833ZM30.6727 48.1955C32.7988 48.1955 34.8772 48.826 36.6451 50.0072C38.4129 51.1884 39.7907 52.8674 40.6044 54.8317C41.418 56.796 41.6309 58.9574 41.2161 61.0427C40.8013 63.128 39.7775 65.0435 38.2741 66.5469C36.7707 68.0503 34.8552 69.0742 32.7699 69.4889C30.6846 69.9037 28.5231 69.6908 26.5588 68.8772C24.5945 68.0636 22.9156 66.6857 21.7344 64.9179C20.5532 63.1501 19.9227 61.0717 19.9227 58.9455C19.9227 56.0944 21.0553 53.3601 23.0713 51.3441C25.0873 49.3281 27.8216 48.1955 30.6727 48.1955ZM107.499 100.333H21.4993L48.231 73.5655C48.7075 73.0929 49.3515 72.8276 50.0227 72.8276C50.6939 72.8276 51.3378 73.0929 51.8143 73.5655L65.001 86.7522L83.1685 68.083C83.645 67.6103 84.289 67.3451 84.9602 67.3451C85.6313 67.3451 86.2753 67.6103 86.7518 68.083L107.499 88.8305V100.333Z" fill="black" fill-opacity="0.38"/>
<rect x="80" width="49" height="49" rx="24.5" fill="white"/>
<path fill-rule="evenodd" clip-rule="evenodd" d="M104.479 6C94.2736 6 86 14.2736 86 24.479C86 34.6845 94.2736 42.958 104.479 42.958C114.684 42.958 122.958 34.6845 122.958 24.479C122.958 14.2736 114.684 6 104.479 6ZM106.159 31.1986C106.159 31.6442 105.982 32.0715 105.667 32.3865C105.352 32.7016 104.925 32.8786 104.479 32.8786C104.033 32.8786 103.606 32.7016 103.291 32.3865C102.976 32.0715 102.799 31.6442 102.799 31.1986V26.1589H97.7594C97.3138 26.1589 96.8865 25.9819 96.5715 25.6669C96.2564 25.3518 96.0795 24.9245 96.0795 24.479C96.0795 24.0335 96.2564 23.6062 96.5715 23.2911C96.8865 22.9761 97.3138 22.7991 97.7594 22.7991H102.799V17.7594C102.799 17.3138 102.976 16.8865 103.291 16.5715C103.606 16.2564 104.033 16.0795 104.479 16.0795C104.925 16.0795 105.352 16.2564 105.667 16.5715C105.982 16.8865 106.159 17.3138 106.159 17.7594V22.7991H111.199C111.644 22.7991 112.071 22.9761 112.387 23.2911C112.702 23.6062 112.879 24.0335 112.879 24.479C112.879 24.9245 112.702 25.3518 112.387 25.6669C112.071 25.9819 111.644 26.1589 111.199 26.1589H106.159V31.1986Z" fill="black" fill-opacity="0.38"/>
</svg>
