<svg width="49" height="49" viewBox="0 0 49 49" fill="none" xmlns="http://www.w3.org/2000/svg">
<path d="M24.5 0.75C11.4043 0.75 0.75 11.4043 0.75 24.5C0.75 37.5957 11.4043 48.25 24.5 48.25C37.5957 48.25 48.25 37.5957 48.25 24.5C48.25 11.4043 37.5957 0.75 24.5 0.75Z" fill="black" fill-opacity="0.2"/>
<path d="M25.8889 18.9444H24.75C23.2083 18.9444 21.7222 20.6111 21.7222 21.9444V24.5L17.5556 28.6667V24.5H14.7778C13.25 24.5 12 23.25 12 21.7222V14.7778C12 13.25 13.25 12 14.7778 12H23.1111C24.6389 12 25.8889 13.25 25.8889 14.7778V18.9444ZM25.8889 20.3333H34.2222C35.75 20.3333 37 21.5833 37 23.1111V30.0556C37 31.5833 35.75 32.8333 34.2222 32.8333H31.4444V37L27.2778 32.8333H25.8889C24.3611 32.8333 23.1111 31.5833 23.1111 30.0556V23.1111C23.1111 21.5833 24.3611 20.3333 25.8889 20.3333Z" fill="white"/>
</svg>
