<svg width="49" height="49" viewBox="0 0 49 49" fill="none" xmlns="http://www.w3.org/2000/svg">
<path d="M24.5 0.75C11.4043 0.75 0.75 11.4043 0.75 24.5C0.75 37.5957 11.4043 48.25 24.5 48.25C37.5957 48.25 48.25 37.5957 48.25 24.5C48.25 11.4043 37.5957 0.75 24.5 0.75ZM26.875 38.75H22.125V34H26.875V38.75ZM29.193 27.1481C28.7275 27.5234 28.2786 27.882 27.9224 28.2383C26.9534 29.2049 26.8774 30.0836 26.875 30.1216V30.4375H22.125V30.0409C22.125 29.7606 22.1939 27.2455 24.5618 24.8776C25.0249 24.4145 25.5996 23.9443 26.2029 23.455C27.9461 22.0419 29.0909 21.0111 29.0909 19.5909C29.0633 18.3911 28.5672 17.2497 27.7088 16.411C26.8504 15.5723 25.6978 15.1029 24.4977 15.1032C23.2975 15.1036 22.1452 15.5736 21.2872 16.4127C20.4292 17.2518 19.9337 18.3934 19.9067 19.5933H15.1567C15.1567 14.4419 19.3486 10.25 24.5 10.25C29.6514 10.25 33.8433 14.4419 33.8433 19.5933C33.8433 23.3861 31.0431 25.6495 29.193 27.1481Z" fill="black" fill-opacity="0.2"/>
</svg>
