<svg width="100" height="100" viewBox="0 0 100 100" fill="none" xmlns="http://www.w3.org/2000/svg">
<path d="M50 6.25C41.3471 6.25 32.8885 8.81589 25.6938 13.6232C18.4992 18.4305 12.8916 25.2633 9.58029 33.2576C6.26896 41.2519 5.40256 50.0485 7.09066 58.5352C8.77877 67.0219 12.9455 74.8174 19.0641 80.9359C25.1826 87.0545 32.9782 91.2213 41.4648 92.9094C49.9515 94.5975 58.7482 93.7311 66.7424 90.4197C74.7367 87.1084 81.5695 81.5008 86.3768 74.3062C91.1841 67.1115 93.75 58.6529 93.75 50C93.75 38.3968 89.1407 27.2688 80.9359 19.0641C72.7312 10.8594 61.6032 6.25 50 6.25V6.25ZM50 87.5C42.5832 87.5 35.333 85.3007 29.1661 81.1801C22.9993 77.0596 18.1928 71.2029 15.3545 64.3506C12.5163 57.4984 11.7736 49.9584 13.2206 42.6841C14.6675 35.4098 18.239 28.728 23.4835 23.4835C28.728 18.239 35.4098 14.6675 42.6841 13.2206C49.9584 11.7736 57.4984 12.5162 64.3506 15.3545C71.2029 18.1928 77.0596 22.9993 81.1801 29.1661C85.3007 35.333 87.5 42.5832 87.5 50C87.5 59.9456 83.5491 69.4839 76.5165 76.5165C69.4839 83.5491 59.9456 87.5 50 87.5Z" fill="#A63F3F"/>
<path d="M46.875 25H53.125V59.375H46.875V25Z" fill="#A63F3F"/>
<path d="M50 68.75C49.0729 68.75 48.1666 69.0249 47.3958 69.54C46.6249 70.0551 46.0241 70.7871 45.6693 71.6437C45.3145 72.5002 45.2217 73.4427 45.4026 74.352C45.5834 75.2613 46.0299 76.0965 46.6854 76.7521C47.341 77.4076 48.1762 77.8541 49.0855 78.0349C49.9948 78.2158 50.9373 78.123 51.7938 77.7682C52.6504 77.4134 53.3824 76.8126 53.8975 76.0417C54.4126 75.2709 54.6875 74.3646 54.6875 73.4375C54.6875 72.1943 54.1936 71.002 53.3146 70.1229C52.4355 69.2439 51.2432 68.75 50 68.75Z" fill="#A63F3F"/>
</svg>
