<svg width="18" height="18" viewBox="0 0 18 18" fill="none" xmlns="http://www.w3.org/2000/svg">
<path d="M14.625 16.875H7.875C7.57672 16.8747 7.29075 16.7561 7.07983 16.5452C6.86892 16.3343 6.7503 16.0483 6.75 15.75V14.0625H7.875V15.75H14.625V2.25H7.875V3.9375H6.75V2.25C6.7503 1.95172 6.86892 1.66575 7.07983 1.45483C7.29075 1.24392 7.57672 1.1253 7.875 1.125H14.625C14.9233 1.1253 15.2093 1.24392 15.4202 1.45483C15.6311 1.66575 15.7497 1.95172 15.75 2.25V15.75C15.7497 16.0483 15.6311 16.3343 15.4202 16.5452C15.2093 16.7561 14.9233 16.8747 14.625 16.875Z" fill="black" fill-opacity="0.87"/>
<path d="M6.42037 11.5796L4.40325 9.5625H12.375V8.4375H4.40325L6.42037 6.42037L5.625 5.625L2.25 9L5.625 12.375L6.42037 11.5796Z" fill="black" fill-opacity="0.87"/>
</svg>
