<svg width="565" height="592" viewBox="0 0 565 592" fill="none" xmlns="http://www.w3.org/2000/svg">
<g clip-path="url(#clip0)">
<g clip-path="url(#clip1)">
<path d="M31.5914 170.63L0 620.651H120.898L138.516 125.042L31.5914 170.63Z" fill="#CF9E9E"/>
<path d="M196.462 169.192L210.388 619.651H121.935L139.449 126.976L196.462 169.192Z" stroke="#CF9E9E" stroke-width="2"/>
<g clip-path="url(#clip2)">
<path d="M101.74 254.052L41.3116 277.497V283.358L49.817 280.102L44.9568 358.904L35.2363 362.812V368.673L78.3707 353.043V347.182L68.6503 350.438L70.4729 313.967L101.74 301.593C101.74 301.593 118.359 291.813 119.075 270.334C119.683 252.099 101.74 254.052 101.74 254.052Z" fill="#EEEEEE"/>
<path d="M99.31 251.447L38.8819 274.892V280.753L47.3873 277.497L42.5271 356.299L32.8066 360.207V366.068L75.941 350.438V344.577L66.2206 347.833L68.0432 311.362L99.31 298.988C99.31 298.988 115.93 289.208 116.645 267.729C117.253 249.494 99.31 251.447 99.31 251.447Z" fill="#EEEEEE"/>
<path d="M68.6504 303.487L69.8654 270.273L81.4084 265.714C81.4084 265.714 89.3063 262.458 92.3439 270.273C93.8375 274.116 93.4283 283.376 89.9138 289.811C86.2804 296.463 80.8009 298.928 80.8009 298.928L68.6504 303.487Z" fill="#EEEEEE"/>
<path d="M71.6875 302.184L72.7717 271.802L87.4832 265.714C87.4832 265.714 91.1284 265.063 92.829 271.802C94.5297 278.542 93.7966 283.788 90.6607 289.674C87.4186 295.76 80.8004 298.928 80.8004 298.928L71.6875 302.184Z" fill="#CF9E9E"/>
</g>
</g>
<g clip-path="url(#clip3)">
<path d="M358.08 95.1205L381.697 619H294.424L287.166 66.6136L358.08 95.1205Z" stroke="#CF9E9E" stroke-width="2"/>
<path d="M155.527 620L169.5 113.319L286.146 65.126L293.436 620H155.527Z" fill="#CF9E9E"/>
<g clip-path="url(#clip4)">
<path d="M228.43 206.449L182.258 224.685V231.197L192.586 227.29C192.586 227.29 190.763 291.113 192.586 296.975C194.408 302.836 200.484 309.349 210.204 308.697C219.924 308.046 230.252 302.185 243.011 296.323C255.769 290.462 261.722 274.832 262.451 267.017C263.18 259.202 262.451 201.239 262.451 201.239L273.387 197.332V190.168L243.618 201.239V208.403L254.554 204.496C254.554 204.496 255.769 257.248 254.554 268.319C253.338 279.391 241.795 292.416 230.252 292.416C223.663 292 221.747 289.811 218.709 284.601C215.672 279.391 218.102 218.172 218.102 218.172L228.43 214.265V206.449Z" fill="#EEEEEE"/>
<path d="M226 203.845L179.828 222.08V228.592L190.156 224.685C190.156 224.685 188.334 288.508 190.156 294.37C191.979 300.231 198.054 306.744 207.774 306.092C217.495 305.441 227.823 299.58 240.581 293.718C253.339 287.857 259.293 272.227 260.022 264.412C260.751 256.597 260.022 198.634 260.022 198.634L270.957 194.727V187.563L241.188 198.634V205.798L252.124 201.891C252.124 201.891 253.339 254.643 252.124 265.714C250.909 276.786 239.366 289.811 227.823 289.811C221.233 289.395 219.317 287.206 216.28 281.996C213.242 276.786 215.672 215.567 215.672 215.567L226 211.66V203.845Z" fill="#EEEEEE"/>
</g>
</g>
<g clip-path="url(#clip5)">
<path d="M333.533 620.651L323.205 54.0546L450.178 0L490.883 620.651H333.533Z" fill="#CF9E9E"/>
<path d="M491.819 619.651L451.376 2.98621L519.073 83.7607L563.913 619.651H491.819Z" stroke="#CF9E9E" stroke-width="2"/>
<g clip-path="url(#clip6)">
<path d="M417.372 137.477C411.904 139.43 345.076 166.784 345.076 166.784V173.297L355.404 169.389L357.227 250.797L346.291 255.355V261.868L397.323 243.633V236.469L385.78 239.725L384.565 203.255L420.41 189.578C435.657 179.978 441.065 165.484 441.065 151.155C441.065 136.826 422.84 135.524 417.372 137.477Z" fill="#EEEEEE"/>
<path d="M414.942 134.872C409.474 136.825 342.646 164.179 342.646 164.179V170.692L352.974 166.784L354.797 248.192L343.862 252.75V259.263L394.894 241.028V233.864L383.351 237.12L382.136 200.65L417.98 186.973C433.228 177.373 438.636 162.879 438.636 148.55C438.636 134.221 420.41 132.919 414.942 134.872Z" fill="#EEEEEE"/>
<path d="M382.135 192.422L381.527 155.952C381.527 155.952 393.07 151.392 397.323 150.09C401.576 148.788 409.474 151.394 409.474 164.419C409.474 177.443 405.221 182.002 400.361 185.258C395.5 188.514 382.135 192.422 382.135 192.422Z" fill="#EEEEEE"/>
<path d="M386.389 190.819L385.781 159.69C396.949 154.924 402.184 153.177 405.222 153.829C406.437 154.089 406.437 154.348 406.437 154.348C406.437 154.348 409.475 153.99 409.475 166.722C409.475 179.455 402.792 184.307 399.147 186.26C395.502 188.214 386.389 190.819 386.389 190.819Z" fill="#CF9E9E"/>
</g>
</g>
</g>
<defs>
<clipPath id="clip0">
<rect width="565" height="620" fill="white"/>
</clipPath>
<clipPath id="clip1">
<rect width="211.419" height="494.958" fill="white" transform="translate(0 125.042)"/>
</clipPath>
<clipPath id="clip2">
<rect width="86.2688" height="117.227" fill="white" transform="translate(32.8066 251.386)"/>
</clipPath>
<clipPath id="clip3">
<rect width="227.215" height="554.874" fill="white" transform="translate(155.527 65.126)"/>
</clipPath>
<clipPath id="clip4">
<rect width="93.5592" height="121.134" fill="white" transform="translate(179.828 187.563)"/>
</clipPath>
<clipPath id="clip5">
<rect width="241.796" height="620" fill="white" transform="translate(323.205)"/>
</clipPath>
<clipPath id="clip6">
<rect width="98.4194" height="127.647" fill="white" transform="translate(342.646 134.16)"/>
</clipPath>
</defs>
</svg>
