<svg width="24" height="24" viewBox="0 0 24 24" fill="none" xmlns="http://www.w3.org/2000/svg">
<path d="M12 2.5C13.1935 2.5 14.3381 2.97411 15.182 3.81802C16.0259 4.66193 16.5 5.80653 16.5 7C16.5 8.19347 16.0259 9.33807 15.182 10.182C14.3381 11.0259 13.1935 11.5 12 11.5C10.8065 11.5 9.66193 11.0259 8.81802 10.182C7.97411 9.33807 7.5 8.19347 7.5 7C7.5 5.80653 7.97411 4.66193 8.81802 3.81802C9.66193 2.97411 10.8065 2.5 12 2.5ZM12 13.75C16.9725 13.75 21 15.7638 21 18.25V20.5H3V18.25C3 15.7638 7.0275 13.75 12 13.75Z" fill="black" fill-opacity="0.6"/>
</svg>
