<svg width="32" height="32" viewBox="0 0 32 32" fill="none" xmlns="http://www.w3.org/2000/svg">
<path d="M9.1665 15C10.5472 15 11.6665 13.8807 11.6665 12.5C11.6665 11.1193 10.5472 10 9.1665 10C7.78579 10 6.6665 11.1193 6.6665 12.5C6.6665 13.8807 7.78579 15 9.1665 15Z" fill="#FFA726"/>
<path d="M4 20.5662C4 20.5662 5.56969 17.0344 9.60603 17.0344C13.6424 17.0344 15.2121 20.5662 15.2121 20.5662V22.4162H4V20.5662Z" fill="#455A64"/>
<path d="M28.6661 20.5662C28.6661 20.5662 27.0965 17.0344 23.0601 17.0344C19.0238 17.0344 17.4541 20.5662 17.4541 20.5662V22.4162H28.6661V20.5662Z" fill="#455A64"/>
<path d="M16.1665 14C18.0995 14 19.6665 12.433 19.6665 10.5C19.6665 8.567 18.0995 7 16.1665 7C14.2335 7 12.6665 8.567 12.6665 10.5C12.6665 12.433 14.2335 14 16.1665 14Z" fill="#F1AF4C"/>
<path d="M22.6665 20.4C22.6665 20.4 20.879 16 16.1665 16C11.454 16 9.6665 20.4 9.6665 20.4V22.688C14.7126 25.7635 17.6293 25.7778 22.6665 22.688V20.4Z" fill="#607D8B"/>
<path d="M23.1665 15C24.5472 15 25.6665 13.8807 25.6665 12.5C25.6665 11.1193 24.5472 10 23.1665 10C21.7858 10 20.6665 11.1193 20.6665 12.5C20.6665 13.8807 21.7858 15 23.1665 15Z" fill="#FFA726"/>
<path d="M9.1665 15C10.5472 15 11.6665 13.8807 11.6665 12.5C11.6665 11.1193 10.5472 10 9.1665 10C7.78579 10 6.6665 11.1193 6.6665 12.5C6.6665 13.8807 7.78579 15 9.1665 15Z" fill="#AC854B"/>
<path d="M23.1665 15C24.5472 15 25.6665 13.8807 25.6665 12.5C25.6665 11.1193 24.5472 10 23.1665 10C21.7858 10 20.6665 11.1193 20.6665 12.5C20.6665 13.8807 21.7858 15 23.1665 15Z" fill="#AC854B"/>
</svg>
