<svg width="32" height="32" viewBox="0 0 32 32" fill="none" xmlns="http://www.w3.org/2000/svg">
<path d="M25.3335 4.6665H6.66683C5.9335 4.6665 5.3335 5.2665 5.3335 5.99984V9.99984C5.3335 10.7332 5.9335 11.3332 6.66683 11.3332H25.3335C26.0668 11.3332 26.6668 10.7332 26.6668 9.99984V5.99984C26.6668 5.2665 26.0668 4.6665 25.3335 4.6665Z" fill="#DFDFDF"/>
<path d="M25.3335 12.6665H6.66683C5.9335 12.6665 5.3335 13.2665 5.3335 13.9998V17.9998C5.3335 18.7332 5.9335 19.3332 6.66683 19.3332H23.4002C24.2668 18.4665 26.6668 18.7332 26.6668 17.9998V13.9998C26.6668 13.2665 26.0668 12.6665 25.3335 12.6665Z" fill="#DFDFDF"/>
<path d="M22.9335 20.6665H6.66683C5.9335 20.6665 5.3335 21.2665 5.3335 21.9998V25.9998C5.3335 26.7332 5.9335 27.3332 6.66683 27.3332H25.3335C26.0668 27.3332 26.6668 26.7332 26.6668 25.9998V24.3998C26.6668 22.3332 25.0002 20.6665 22.9335 20.6665Z" fill="#DFDFDF"/>
<path d="M28.8889 17H21.1111C20.5 17 20 17.52 20 18.1556V24.9733C20 25.7244 20.3333 26.36 20.8889 26.8222L25 30L29.1111 26.8222C29.6667 26.36 30 25.7244 30 24.9733V18.1556C30 17.52 29.5 17 28.8889 17Z" fill="#E9BD11"/>
</svg>
