<svg width="32" height="32" viewBox="0 0 32 32" fill="none" xmlns="http://www.w3.org/2000/svg">
<path d="M24.8 8.33333H23.7V25H24.8C26.01 25 27 24 27 22.7778V10.5556C27 9.33333 26.01 8.33333 24.8 8.33333ZM5 10.5556V22.7778C5 24 5.9889 25 7.2 25H8.3V8.33333H7.2C5.9889 8.33333 5 9.33333 5 10.5556ZM19.85 6.00667C19.1009 5.65556 17.7721 5 15.9791 5C14.1828 5 12.8991 5.65556 12.15 6.00667V8.33333H9.4V25H22.6V8.33333H19.85V6.00667ZM18.2 8.33333H13.8V6.84889C14.3874 6.59333 14.9858 6.33222 15.9791 6.33222C16.9713 6.33222 17.6137 6.59222 18.2 6.84889V8.33333Z" fill="white"/>
</svg>
