<svg width="20" height="19" viewBox="0 0 20 19" fill="none" xmlns="http://www.w3.org/2000/svg">
<path d="M12.9167 10.9375H12.2584L12.025 10.7266C13.025 9.63281 13.5417 8.14062 13.2584 6.55469C12.8667 4.38281 10.9334 2.64844 8.60003 2.38281C5.07503 1.97656 2.10837 4.75781 2.5417 8.0625C2.82503 10.25 4.67503 12.0625 6.9917 12.4297C8.68337 12.6953 10.275 12.2109 11.4417 11.2734L11.6667 11.4922V12.1094L15.2084 15.4297C15.55 15.75 16.1084 15.75 16.45 15.4297C16.7917 15.1094 16.7917 14.5859 16.45 14.2656L12.9167 10.9375ZM7.9167 10.9375C5.8417 10.9375 4.1667 9.36719 4.1667 7.42187C4.1667 5.47656 5.8417 3.90625 7.9167 3.90625C9.9917 3.90625 11.6667 5.47656 11.6667 7.42187C11.6667 9.36719 9.9917 10.9375 7.9167 10.9375Z" fill="black" fill-opacity="0.38"/>
</svg>
