<svg width="32" height="32" viewBox="0 0 32 32" fill="none" xmlns="http://www.w3.org/2000/svg">
<path d="M22.75 6H17.125C17.125 6.605 16.6187 7.1 16 7.1C15.3813 7.1 14.875 6.605 14.875 6H9.25C8.0125 6 7 6.99 7 8.2V25.8C7 27.01 8.0125 28 9.25 28H22.75C23.9875 28 25 27.01 25 25.8V8.2C25 6.99 23.9875 6 22.75 6Z" fill="#B7D7E7"/>
<path d="M22.4615 26H9.53846C9.21538 26 9 25.7882 9 25.4706V8.52941C9 8.21176 9.21538 8 9.53846 8H22.4615C22.7846 8 23 8.21176 23 8.52941V25.4706C23 25.7882 22.7846 26 22.4615 26Z" fill="white"/>
<path d="M17.1043 6.20874C17.1043 6.81615 16.6074 7.31312 16 7.31312C15.3926 7.31312 14.8956 6.81615 14.8956 6.20874H11.0303V8.41749C11.0303 9.0249 11.5272 9.52187 12.1347 9.52187H19.8653C20.4727 9.52187 20.9697 9.0249 20.9697 8.41749V6.20874H17.1043Z" fill="#90A4AE"/>
<path d="M16.0003 4C14.7855 4 13.7916 4.99394 13.7916 6.20875C13.7916 7.42357 14.7855 8.41751 16.0003 8.41751C17.2151 8.41751 18.2091 7.42357 18.2091 6.20875C18.2091 4.99394 17.2151 4 16.0003 4ZM16.0003 7.31313C15.3929 7.31313 14.8959 6.81616 14.8959 6.20875C14.8959 5.60135 15.3929 5.10438 16.0003 5.10438C16.6077 5.10438 17.1047 5.60135 17.1047 6.20875C17.1047 6.81616 16.6077 7.31313 16.0003 7.31313Z" fill="#90A4AE"/>
<path d="M14.3432 15.0439H20.9695V16.1483H14.3432V15.0439Z" fill="#E9BD11"/>
<path d="M11.0303 14.4917H13.239V16.7005H11.0303V14.4917Z" fill="#E9BD11"/>
<path d="M14.3432 20.0137H20.9695V21.118H14.3432V20.0137Z" fill="#03A9F4"/>
<path d="M11.0303 19.4614H13.239V21.6702H11.0303V19.4614Z" fill="#03A9F4"/>
</svg>
